<svg width="98" height="98" viewBox="0 0 98 98" fill="none" xmlns="http://www.w3.org/2000/svg">
<rect width="98" height="98" fill="#1B1B1B"/>
<path d="M77.4691 53.004C76.0097 63.0222 72.8222 71.6596 68.8614 77.5264C64.8861 83.4149 60.2016 86.4212 55.7595 85.4276C51.3174 84.4341 47.7768 79.5881 45.7138 72.349C43.6583 65.1366 43.109 55.6633 44.5684 45.6451C46.0278 35.6269 49.2153 26.9895 53.1761 21.1227C57.1514 15.2342 61.8359 12.2279 66.278 13.2215C70.7201 14.215 74.2607 19.061 76.3237 26.3001C78.3792 33.5126 78.9285 42.9858 77.4691 53.004Z" fill="white" stroke="#B5B5B5" stroke-width="0.6"/>
<path d="M53.4925 52.8243C52.0331 62.8425 48.8456 71.4799 44.8849 77.3467C40.9095 83.2353 36.225 86.2415 31.783 85.248C27.3409 84.2544 23.8002 79.4084 21.7372 72.1693C19.6818 64.9569 19.1325 55.4837 20.5919 45.4654C22.0512 35.4472 25.2388 26.8098 29.1995 20.943C33.1748 15.0545 37.8593 12.0482 42.3014 13.0418C46.7435 14.0353 50.2841 18.8813 52.3472 26.1204C54.4026 33.3329 54.9519 42.8061 53.4925 52.8243Z" fill="white" stroke="#B5B5B5" stroke-width="0.6"/>
<mask id="path-3-outside-1_347_14" maskUnits="userSpaceOnUse" x="33.0547" y="32.917" width="16" height="41" fill="black">
<rect fill="white" x="33.0547" y="32.917" width="16" height="41"/>
<path fill-rule="evenodd" clip-rule="evenodd" d="M37.3484 72.2447C40.6341 73.2283 44.9667 65.4645 47.0256 54.9038C49.0846 44.3431 48.0901 34.9846 44.8044 34.001C42.8194 33.4068 40.4523 36.0052 38.4353 40.4841L43.4627 43.4635L35.586 49.1923C35.4229 49.8942 35.2696 50.6114 35.1272 51.342C33.0682 61.9027 34.0627 71.2612 37.3484 72.2447Z"/>
</mask>
<path fill-rule="evenodd" clip-rule="evenodd" d="M37.3484 72.2447C40.6341 73.2283 44.9667 65.4645 47.0256 54.9038C49.0846 44.3431 48.0901 34.9846 44.8044 34.001C42.8194 33.4068 40.4523 36.0052 38.4353 40.4841L43.4627 43.4635L35.586 49.1923C35.4229 49.8942 35.2696 50.6114 35.1272 51.342C33.0682 61.9027 34.0627 71.2612 37.3484 72.2447Z" fill="#3A3A3A"/>
<path d="M47.0256 54.9038L46.4367 54.7889L46.4367 54.7889L47.0256 54.9038ZM37.3484 72.2447L37.5205 71.6699L37.5205 71.6699L37.3484 72.2447ZM44.8044 34.001L44.6323 34.5758L44.6323 34.5758L44.8044 34.001ZM38.4353 40.4841L37.8882 40.2377C37.7628 40.5163 37.8666 40.8445 38.1294 41.0003L38.4353 40.4841ZM43.4627 43.4635L43.8157 43.9487C43.9789 43.83 44.0716 43.637 44.0621 43.4353C44.0526 43.2337 43.9423 43.0503 43.7686 42.9473L43.4627 43.4635ZM35.586 49.1923L35.2331 48.7071C35.1165 48.7919 35.0343 48.916 35.0016 49.0565L35.586 49.1923ZM35.1272 51.342L34.5383 51.2272L34.5383 51.2272L35.1272 51.342ZM46.4367 54.7889C45.4156 60.0267 43.835 64.5434 42.1231 67.611C41.265 69.1487 40.3934 70.2868 39.5717 70.9754C38.7465 71.6669 38.0668 71.8335 37.5205 71.6699L37.1763 72.8195C38.2729 73.1478 39.3669 72.7127 40.3425 71.8951C41.3216 71.0746 42.2779 69.7961 43.171 68.1957C44.9616 64.9871 46.5768 60.3415 47.6146 55.0186L46.4367 54.7889ZM44.6323 34.5758C45.2045 34.7471 45.7828 35.3209 46.2786 36.44C46.767 37.5422 47.1252 39.0665 47.3226 40.9244C47.7168 44.6343 47.4576 49.5525 46.4367 54.7889L47.6146 55.0186C48.6526 49.6943 48.9256 44.653 48.5159 40.7976C48.3113 38.8728 47.9336 37.2129 47.3757 35.9539C46.8253 34.7116 46.0472 33.7467 44.9765 33.4262L44.6323 34.5758ZM38.9824 40.7305C39.9771 38.5217 41.0393 36.8215 42.0643 35.7561C43.1101 34.6689 43.9733 34.3785 44.6323 34.5758L44.9765 33.4262C43.6505 33.0293 42.3377 33.741 41.1995 34.9242C40.0403 36.1291 38.9105 37.9676 37.8882 40.2377L38.9824 40.7305ZM43.7686 42.9473L38.7412 39.9679L38.1294 41.0003L43.1568 43.9797L43.7686 42.9473ZM35.9389 49.6775L43.8157 43.9487L43.1098 42.9782L35.2331 48.7071L35.9389 49.6775ZM35.7161 51.4568C35.8572 50.7332 36.009 50.023 36.1705 49.3281L35.0016 49.0565C34.8369 49.7654 34.6821 50.4896 34.5383 51.2272L35.7161 51.4568ZM37.5205 71.6699C36.9483 71.4987 36.37 70.9249 35.8742 69.8058C35.3859 68.7035 35.0276 67.1793 34.8302 65.3214C34.436 61.6115 34.6952 56.6932 35.7161 51.4568L34.5383 51.2272C33.5002 56.5515 33.2272 61.5928 33.6369 65.4482C33.8415 67.373 34.2192 69.0328 34.7771 70.2919C35.3275 71.5342 36.1056 72.499 37.1763 72.8195L37.5205 71.6699Z" fill="#3A3A3A" mask="url(#path-3-outside-1_347_14)"/>
<mask id="path-5-outside-2_347_14" maskUnits="userSpaceOnUse" x="56.7344" y="32.8994" width="16" height="41" fill="black">
<rect fill="white" x="56.7344" y="32.8994" width="16" height="41"/>
<path fill-rule="evenodd" clip-rule="evenodd" d="M61.0281 72.2272C64.3138 73.2107 68.6464 65.4469 70.7053 54.8862C72.7642 44.3255 71.7698 34.967 68.4841 33.9834C66.5015 33.39 64.1378 35.9813 62.1224 40.4501L67.2084 43.4642L59.2472 49.2545C59.091 49.9309 58.9439 50.6215 58.8069 51.3244C56.7479 61.8851 57.7424 71.2436 61.0281 72.2272Z"/>
</mask>
<path fill-rule="evenodd" clip-rule="evenodd" d="M61.0281 72.2272C64.3138 73.2107 68.6464 65.4469 70.7053 54.8862C72.7642 44.3255 71.7698 34.967 68.4841 33.9834C66.5015 33.39 64.1378 35.9813 62.1224 40.4501L67.2084 43.4642L59.2472 49.2545C59.091 49.9309 58.9439 50.6215 58.8069 51.3244C56.7479 61.8851 57.7424 71.2436 61.0281 72.2272Z" fill="#3A3A3A"/>
<path d="M70.7053 54.8862L70.1164 54.7714L70.7053 54.8862ZM61.0281 72.2272L60.856 72.802L60.856 72.802L61.0281 72.2272ZM68.4841 33.9834L68.6562 33.4086L68.6562 33.4086L68.4841 33.9834ZM62.1224 40.4501L61.5754 40.2035C61.4498 40.482 61.5536 40.8105 61.8165 40.9663L62.1224 40.4501ZM67.2084 43.4642L67.5614 43.9495C67.7246 43.8307 67.8172 43.6378 67.8078 43.4361C67.7983 43.2344 67.688 43.051 67.5143 42.9481L67.2084 43.4642ZM59.2472 49.2545L58.8943 48.7693C58.7774 48.8543 58.6952 48.9787 58.6626 49.1195L59.2472 49.2545ZM58.8069 51.3244L58.2179 51.2096L58.2179 51.2096L58.8069 51.3244ZM70.1164 54.7714C69.0953 60.0092 67.5147 64.5258 65.8028 67.5934C64.9447 69.1311 64.073 70.2692 63.2514 70.9578C62.4262 71.6494 61.7464 71.8159 61.2002 71.6524L60.856 72.802C61.9526 73.1302 63.0466 72.6951 64.0222 71.8775C65.0013 71.057 65.9576 69.7786 66.8507 68.1782C68.6413 64.9695 70.2565 60.3239 71.2942 55.001L70.1164 54.7714ZM68.312 34.5582C68.8841 34.7295 69.4625 35.3033 69.9583 36.4224C70.4466 37.5247 70.8049 39.0489 71.0023 40.9068C71.3965 44.6167 71.1373 49.535 70.1164 54.7714L71.2942 55.001C72.3323 49.6767 72.6053 44.6354 72.1956 40.78C71.991 38.8552 71.6133 37.1954 71.0554 35.9363C70.505 34.694 69.7269 33.7292 68.6562 33.4086L68.312 34.5582ZM62.6693 40.6968C63.6632 38.493 64.7242 36.7972 65.7477 35.7347C66.792 34.6506 67.6538 34.3612 68.312 34.5582L68.6562 33.4086C67.3318 33.0122 66.0205 33.7217 64.8834 34.9022C63.7256 36.1041 62.597 37.9384 61.5754 40.2035L62.6693 40.6968ZM67.5143 42.9481L62.4283 39.934L61.8165 40.9663L66.9025 43.9804L67.5143 42.9481ZM59.6002 49.7397L67.5614 43.9495L66.8555 42.979L58.8943 48.7693L59.6002 49.7397ZM59.3958 51.4392C59.5315 50.743 59.6772 50.0592 59.8318 49.3895L58.6626 49.1195C58.5048 49.8027 58.3563 50.4999 58.2179 51.2096L59.3958 51.4392ZM61.2002 71.6524C60.628 71.4811 60.0497 70.9073 59.5539 69.7882C59.0655 68.6859 58.7073 67.1617 58.5099 65.3038C58.1157 61.5939 58.3749 56.6757 59.3958 51.4392L58.2179 51.2096C57.1799 56.5339 56.9069 61.5752 57.3166 65.4306C57.5211 67.3554 57.8989 69.0152 58.4568 70.2743C59.0072 71.5166 59.7853 72.4815 60.856 72.802L61.2002 71.6524Z" fill="#3A3A3A" mask="url(#path-5-outside-2_347_14)"/>
</svg>
